<svg width="250" height="88" viewBox="0 0 250 88" fill="none" xmlns="http://www.w3.org/2000/svg">
<g filter="url(#filter0_d_6_8)">
<rect x="2" y="2" width="242" height="80" rx="5" fill="url(#paint0_linear_6_8)" shape-rendering="crispEdges"/>
</g>
<g filter="url(#filter1_d_6_8)">
<path d="M37.6719 40.2793C37.6719 40.0254 37.6328 39.7975 37.5547 39.5957C37.4831 39.3874 37.3464 39.1986 37.1445 39.0293C36.9427 38.8535 36.6595 38.681 36.2949 38.5117C35.9303 38.3424 35.4583 38.1667 34.8789 37.9844C34.2344 37.776 33.6224 37.5417 33.043 37.2812C32.4701 37.0208 31.9622 36.7181 31.5195 36.373C31.0833 36.0215 30.7383 35.6146 30.4844 35.1523C30.237 34.6901 30.1133 34.153 30.1133 33.541C30.1133 32.9486 30.2435 32.4115 30.5039 31.9297C30.7643 31.4414 31.1289 31.0247 31.5977 30.6797C32.0664 30.3281 32.6198 30.0579 33.2578 29.8691C33.9023 29.6803 34.6087 29.5859 35.377 29.5859C36.4251 29.5859 37.3398 29.7747 38.1211 30.1523C38.9023 30.5299 39.5078 31.0475 39.9375 31.7051C40.3737 32.3626 40.5918 33.1146 40.5918 33.9609H37.6816C37.6816 33.5443 37.5938 33.1797 37.418 32.8672C37.2487 32.5482 36.9883 32.2975 36.6367 32.1152C36.2917 31.9329 35.8555 31.8418 35.3281 31.8418C34.8203 31.8418 34.3971 31.9199 34.0586 32.0762C33.7201 32.2259 33.4661 32.431 33.2969 32.6914C33.1276 32.9453 33.043 33.2318 33.043 33.5508C33.043 33.7917 33.1016 34.0098 33.2188 34.2051C33.3424 34.4004 33.5247 34.5827 33.7656 34.752C34.0065 34.9212 34.3027 35.0807 34.6543 35.2305C35.0059 35.3802 35.4128 35.5267 35.875 35.6699C36.6497 35.9043 37.3301 36.168 37.916 36.4609C38.5085 36.7539 39.0033 37.0827 39.4004 37.4473C39.7975 37.8118 40.097 38.2253 40.2988 38.6875C40.5007 39.1497 40.6016 39.6738 40.6016 40.2598C40.6016 40.8783 40.4811 41.4316 40.2402 41.9199C39.9993 42.4082 39.651 42.8216 39.1953 43.1602C38.7396 43.4987 38.196 43.7559 37.5645 43.9316C36.9329 44.1074 36.2266 44.1953 35.4453 44.1953C34.7422 44.1953 34.0488 44.1042 33.3652 43.9219C32.6816 43.7331 32.0599 43.4499 31.5 43.0723C30.9466 42.6947 30.5039 42.2129 30.1719 41.627C29.8398 41.041 29.6738 40.3477 29.6738 39.5469H32.6133C32.6133 39.9896 32.6816 40.3639 32.8184 40.6699C32.9551 40.9759 33.1471 41.2233 33.3945 41.4121C33.6484 41.6009 33.9479 41.7376 34.293 41.8223C34.6445 41.9069 35.0286 41.9492 35.4453 41.9492C35.9531 41.9492 36.3698 41.8776 36.6953 41.7344C37.0273 41.5911 37.2715 41.3926 37.4277 41.1387C37.5905 40.8848 37.6719 40.5983 37.6719 40.2793ZM60.4453 29.7812H63.3652V39.1758C63.3652 40.2695 63.1309 41.1908 62.6621 41.9395C62.1999 42.6882 61.5586 43.2513 60.7383 43.6289C59.9245 44.0065 58.987 44.1953 57.9258 44.1953C56.8646 44.1953 55.9206 44.0065 55.0938 43.6289C54.2734 43.2513 53.6289 42.6882 53.1602 41.9395C52.6979 41.1908 52.4668 40.2695 52.4668 39.1758V29.7812H55.3965V39.1758C55.3965 39.8138 55.4974 40.3346 55.6992 40.7383C55.901 41.1419 56.1908 41.4382 56.5684 41.627C56.9525 41.8158 57.4049 41.9102 57.9258 41.9102C58.4596 41.9102 58.9121 41.8158 59.2832 41.627C59.6608 41.4382 59.9473 41.1419 60.1426 40.7383C60.3444 40.3346 60.4453 39.8138 60.4453 39.1758V29.7812ZM81.3145 38.9316H77.6914V36.6465H81.3145C81.8743 36.6465 82.3301 36.5553 82.6816 36.373C83.0332 36.1842 83.2904 35.9238 83.4531 35.5918C83.6159 35.2598 83.6973 34.8854 83.6973 34.4688C83.6973 34.0456 83.6159 33.6517 83.4531 33.2871C83.2904 32.9225 83.0332 32.6296 82.6816 32.4082C82.3301 32.1868 81.8743 32.0762 81.3145 32.0762H78.707V44H75.7773V29.7812H81.3145C82.4277 29.7812 83.3815 29.9831 84.1758 30.3867C84.9766 30.7839 85.5885 31.334 86.0117 32.0371C86.4349 32.7402 86.6465 33.5443 86.6465 34.4492C86.6465 35.3672 86.4349 36.1615 86.0117 36.832C85.5885 37.5026 84.9766 38.0202 84.1758 38.3848C83.3815 38.7493 82.4277 38.9316 81.3145 38.9316ZM108.209 41.7148V44H100.641V41.7148H108.209ZM101.598 29.7812V44H98.668V29.7812H101.598ZM107.223 35.5723V37.7988H100.641V35.5723H107.223ZM108.199 29.7812V32.0762H100.641V29.7812H108.199ZM119.918 29.7812H125.221C126.308 29.7812 127.242 29.944 128.023 30.2695C128.811 30.5951 129.417 31.0768 129.84 31.7148C130.263 32.3529 130.475 33.1374 130.475 34.0684C130.475 34.8301 130.344 35.4844 130.084 36.0312C129.83 36.5716 129.469 37.0241 129 37.3887C128.538 37.7467 127.994 38.0332 127.369 38.248L126.441 38.7363H121.832L121.812 36.4512H125.24C125.755 36.4512 126.181 36.36 126.52 36.1777C126.858 35.9954 127.112 35.7415 127.281 35.416C127.457 35.0905 127.545 34.7129 127.545 34.2832C127.545 33.8275 127.46 33.4336 127.291 33.1016C127.122 32.7695 126.865 32.5156 126.52 32.3398C126.174 32.1641 125.742 32.0762 125.221 32.0762H122.848V44H119.918V29.7812ZM127.867 44L124.625 37.6621L127.721 37.6426L131.002 43.8633V44H127.867ZM163.248 38.9316H159.625V36.6465H163.248C163.808 36.6465 164.264 36.5553 164.615 36.373C164.967 36.1842 165.224 35.9238 165.387 35.5918C165.549 35.2598 165.631 34.8854 165.631 34.4688C165.631 34.0456 165.549 33.6517 165.387 33.2871C165.224 32.9225 164.967 32.6296 164.615 32.4082C164.264 32.1868 163.808 32.0762 163.248 32.0762H160.641V44H157.711V29.7812H163.248C164.361 29.7812 165.315 29.9831 166.109 30.3867C166.91 30.7839 167.522 31.334 167.945 32.0371C168.368 32.7402 168.58 33.5443 168.58 34.4492C168.58 35.3672 168.368 36.1615 167.945 36.832C167.522 37.5026 166.91 38.0202 166.109 38.3848C165.315 38.7493 164.361 38.9316 163.248 38.9316ZM190.143 41.7148V44H182.574V41.7148H190.143ZM183.531 29.7812V44H180.602V29.7812H183.531ZM189.156 35.5723V37.7988H182.574V35.5723H189.156ZM190.133 29.7812V32.0762H182.574V29.7812H190.133ZM208.404 29.7812V44H205.484V29.7812H208.404ZM212.779 29.7812V32.0762H201.178V29.7812H212.779Z" fill="#190981"/>
</g>
<defs>
<filter id="filter0_d_6_8" x="0" y="0" width="250" height="88" filterUnits="userSpaceOnUse" color-interpolation-filters="sRGB">
<feFlood flood-opacity="0" result="BackgroundImageFix"/>
<feColorMatrix in="SourceAlpha" type="matrix" values="0 0 0 0 0 0 0 0 0 0 0 0 0 0 0 0 0 0 127 0" result="hardAlpha"/>
<feOffset dx="2" dy="2"/>
<feGaussianBlur stdDeviation="2"/>
<feComposite in2="hardAlpha" operator="out"/>
<feColorMatrix type="matrix" values="0 0 0 0 0 0 0 0 0 0 0 0 0 0 0 0 0 0 0.25 0"/>
<feBlend mode="normal" in2="BackgroundImageFix" result="effect1_dropShadow_6_8"/>
<feBlend mode="normal" in="SourceGraphic" in2="effect1_dropShadow_6_8" result="shape"/>
</filter>
<filter id="filter1_d_6_8" x="29.6738" y="29.5859" width="191.105" height="26.6094" filterUnits="userSpaceOnUse" color-interpolation-filters="sRGB">
<feFlood flood-opacity="0" result="BackgroundImageFix"/>
<feColorMatrix in="SourceAlpha" type="matrix" values="0 0 0 0 0 0 0 0 0 0 0 0 0 0 0 0 0 0 127 0" result="hardAlpha"/>
<feOffset dx="4" dy="8"/>
<feGaussianBlur stdDeviation="2"/>
<feComposite in2="hardAlpha" operator="out"/>
<feColorMatrix type="matrix" values="0 0 0 0 0 0 0 0 0 0 0 0 0 0 0 0 0 0 0.75 0"/>
<feBlend mode="normal" in2="BackgroundImageFix" result="effect1_dropShadow_6_8"/>
<feBlend mode="normal" in="SourceGraphic" in2="effect1_dropShadow_6_8" result="shape"/>
</filter>
<linearGradient id="paint0_linear_6_8" x1="123" y1="2" x2="123" y2="82" gradientUnits="userSpaceOnUse">
<stop stop-color="#5D6138"/>
<stop offset="0.03125" stop-color="#5D6138" stop-opacity="0.898305"/>
<stop offset="0.307292" stop-color="#5D6138" stop-opacity="0"/>
<stop offset="0.864583" stop-color="#5D6138" stop-opacity="0.830508"/>
</linearGradient>
</defs>
</svg>
